<?xml version="1.0" encoding="utf-8"?>
<!-- Generator: Adobe Illustrator 25.4.0, SVG Export Plug-In . SVG Version: 6.00 Build 0)  -->
<svg version="1.1" id="Layer_1" xmlns="http://www.w3.org/2000/svg" xmlns:xlink="http://www.w3.org/1999/xlink" x="0px" y="0px"
	 viewBox="0 0 300 300" style="enable-background:new 0 0 300 300;" xml:space="preserve">
<style type="text/css">
	.st0{clip-path:url(#SVGID_00000054956216720642917680000014989276152109045398_);}
	.st1{fill:#FFFFFF;}
	.st2{fill:url(#SVGID_00000079450550738249008910000011214513786851102631_);}
	.st3{fill:url(#SVGID_00000091001586945220666700000002078699765069335728_);}
	.st4{fill:url(#SVGID_00000133490098689058514750000013493713377614945195_);}
	.st5{fill:url(#SVGID_00000164492607828986760110000017562741302792306850_);}
	.st6{fill:url(#SVGID_00000010272164984888427800000007172495997063706042_);}
	.st7{fill:url(#SVGID_00000031196006687113336540000005313753074496414369_);}
	.st8{fill:url(#SVGID_00000043434035667074443980000001301939137170847921_);}
	.st9{fill:url(#SVGID_00000171718494171900079190000016530874738668993719_);}
</style>
<g>
	<defs>
		<path id="SVGID_1_" d="M298.1,150c0,81.8-66.3,148.1-148.1,148.1C68.2,298.1,1.9,231.8,1.9,150C1.9,68.2,68.2,1.9,150,1.9
			C231.8,1.9,298.1,68.2,298.1,150z"/>
	</defs>
	<clipPath id="SVGID_00000062173532195468801920000017423857993396090754_">
		<use xlink:href="#SVGID_1_"  style="overflow:visible;"/>
	</clipPath>
	<g style="clip-path:url(#SVGID_00000062173532195468801920000017423857993396090754_);">
		<g>
			<rect x="-65.6" y="1.5" class="st1" width="383.7" height="304.2"/>
			
				<radialGradient id="SVGID_00000021831784101738675490000002471169598891415972_" cx="108.9691" cy="64.2379" r="175.6176" gradientUnits="userSpaceOnUse">
				<stop  offset="0" style="stop-color:#F66B59"/>
				<stop  offset="4.094017e-02" style="stop-color:#F46655"/>
				<stop  offset="0.6964" style="stop-color:#D41D1C"/>
				<stop  offset="1" style="stop-color:#C70006"/>
			</radialGradient>
			
				<rect x="-65.6" y="-2.3" style="fill:url(#SVGID_00000021831784101738675490000002471169598891415972_);" width="383.7" height="24.1"/>
			
				<radialGradient id="SVGID_00000036220705603894395480000013914976713896996253_" cx="108.9691" cy="64.2359" r="175.6178" gradientUnits="userSpaceOnUse">
				<stop  offset="0" style="stop-color:#F66B59"/>
				<stop  offset="4.094017e-02" style="stop-color:#F46655"/>
				<stop  offset="0.6964" style="stop-color:#D41D1C"/>
				<stop  offset="1" style="stop-color:#C70006"/>
			</radialGradient>
			
				<rect x="-65.6" y="45.4" style="fill:url(#SVGID_00000036220705603894395480000013914976713896996253_);" width="383.7" height="24"/>
			
				<radialGradient id="SVGID_00000116936084364597870510000010443212171705678228_" cx="108.9691" cy="64.238" r="175.6173" gradientUnits="userSpaceOnUse">
				<stop  offset="0" style="stop-color:#F66B59"/>
				<stop  offset="4.094017e-02" style="stop-color:#F46655"/>
				<stop  offset="0.6964" style="stop-color:#D41D1C"/>
				<stop  offset="1" style="stop-color:#C70006"/>
			</radialGradient>
			
				<rect x="-65.6" y="93" style="fill:url(#SVGID_00000116936084364597870510000010443212171705678228_);" width="383.7" height="24.1"/>
			
				<radialGradient id="SVGID_00000080887683461851913090000016339880045524658080_" cx="108.9691" cy="64.2406" r="175.6152" gradientUnits="userSpaceOnUse">
				<stop  offset="0" style="stop-color:#F66B59"/>
				<stop  offset="4.094017e-02" style="stop-color:#F46655"/>
				<stop  offset="0.6964" style="stop-color:#D41D1C"/>
				<stop  offset="1" style="stop-color:#C70006"/>
			</radialGradient>
			
				<rect x="-65.6" y="140.7" style="fill:url(#SVGID_00000080887683461851913090000016339880045524658080_);" width="383.7" height="24.1"/>
			
				<radialGradient id="SVGID_00000139981968590834605400000005830460482910070176_" cx="108.9691" cy="64.243" r="175.6142" gradientUnits="userSpaceOnUse">
				<stop  offset="0" style="stop-color:#F66B59"/>
				<stop  offset="4.094017e-02" style="stop-color:#F46655"/>
				<stop  offset="0.6964" style="stop-color:#D41D1C"/>
				<stop  offset="1" style="stop-color:#C70006"/>
			</radialGradient>
			
				<rect x="-65.6" y="188.3" style="fill:url(#SVGID_00000139981968590834605400000005830460482910070176_);" width="383.7" height="24.1"/>
			
				<radialGradient id="SVGID_00000095336207371293768360000011240237761281331095_" cx="108.9691" cy="64.2339" r="175.6178" gradientUnits="userSpaceOnUse">
				<stop  offset="0" style="stop-color:#F66B59"/>
				<stop  offset="4.094017e-02" style="stop-color:#F46655"/>
				<stop  offset="0.6964" style="stop-color:#D41D1C"/>
				<stop  offset="1" style="stop-color:#C70006"/>
			</radialGradient>
			
				<rect x="-65.6" y="235.9" style="fill:url(#SVGID_00000095336207371293768360000011240237761281331095_);" width="383.7" height="24.1"/>
			
				<radialGradient id="SVGID_00000008828363893760400210000001513428758445200015_" cx="108.9691" cy="64.2237" r="175.6225" gradientUnits="userSpaceOnUse">
				<stop  offset="0" style="stop-color:#F66B59"/>
				<stop  offset="4.094017e-02" style="stop-color:#F46655"/>
				<stop  offset="0.6964" style="stop-color:#D41D1C"/>
				<stop  offset="1" style="stop-color:#C70006"/>
			</radialGradient>
			
				<rect x="-65.6" y="283.6" style="fill:url(#SVGID_00000008828363893760400210000001513428758445200015_);" width="383.7" height="24.1"/>
		</g>
		<g>
			
				<radialGradient id="SVGID_00000098939848888325899900000016039168791325191832_" cx="233.8254" cy="171.4416" r="289.6639" gradientUnits="userSpaceOnUse">
				<stop  offset="0.4516" style="stop-color:#004394"/>
				<stop  offset="0.7062" style="stop-color:#003377"/>
				<stop  offset="1" style="stop-color:#001D51"/>
			</radialGradient>
			
				<rect x="-65.6" y="-2.3" style="fill:url(#SVGID_00000098939848888325899900000016039168791325191832_);" width="235.1" height="167"/>
			<g>
				<polygon class="st1" points="-43.8,6.9 -41.6,12.9 -35.1,13.2 -40.2,17.2 -38.5,23.4 -43.8,19.8 -49.2,23.4 -47.5,17.2 
					-52.5,13.2 -46.1,12.9 				"/>
				<polygon class="st1" points="-5.5,6.9 -3.3,12.9 3.2,13.2 -1.9,17.2 -0.2,23.4 -5.5,19.8 -10.9,23.4 -9.2,17.2 -14.2,13.2 
					-7.8,12.9 				"/>
				<polygon class="st1" points="32.8,6.9 35,12.9 41.5,13.2 36.4,17.2 38.2,23.4 32.8,19.8 27.4,23.4 29.2,17.2 24.1,13.2 
					30.6,12.9 				"/>
				<polygon class="st1" points="71.1,6.9 73.3,12.9 79.8,13.2 74.7,17.2 76.5,23.4 71.1,19.8 65.7,23.4 67.5,17.2 62.4,13.2 
					68.9,12.9 				"/>
				<polygon class="st1" points="109.4,6.9 111.7,12.9 118.1,13.2 113,17.2 114.8,23.4 109.4,19.8 104,23.4 105.8,17.2 100.7,13.2 
					107.2,12.9 				"/>
				<polygon class="st1" points="147.7,6.9 150,12.9 156.4,13.2 151.4,17.2 153.1,23.4 147.7,19.8 142.4,23.4 144.1,17.2 139,13.2 
					145.5,12.9 				"/>
				<polygon class="st1" points="-23.7,23.4 -21.5,29.5 -15,29.7 -20.1,33.7 -18.4,39.9 -23.7,36.4 -29.1,39.9 -27.4,33.7 
					-32.4,29.7 -26,29.5 				"/>
				<polygon class="st1" points="14.6,23.4 16.8,29.5 23.3,29.7 18.2,33.7 20,39.9 14.6,36.4 9.2,39.9 10.9,33.7 5.9,29.7 
					12.3,29.5 				"/>
				<polygon class="st1" points="52.9,23.4 55.1,29.5 61.6,29.7 56.5,33.7 58.3,39.9 52.9,36.4 47.5,39.9 49.3,33.7 44.2,29.7 
					50.7,29.5 				"/>
				<polygon class="st1" points="91.2,23.4 93.4,29.5 99.9,29.7 94.8,33.7 96.6,39.9 91.2,36.4 85.8,39.9 87.6,33.7 82.5,29.7 
					89,29.5 				"/>
				<polygon class="st1" points="129.5,23.4 131.8,29.5 138.2,29.7 133.1,33.7 134.9,39.9 129.5,36.4 124.1,39.9 125.9,33.7 
					120.8,29.7 127.3,29.5 				"/>
				<polygon class="st1" points="-43.8,40 -41.6,46 -35.1,46.3 -40.2,50.3 -38.5,56.5 -43.8,52.9 -49.2,56.5 -47.5,50.3 -52.5,46.3 
					-46.1,46 				"/>
				<polygon class="st1" points="-5.5,40 -3.3,46 3.2,46.3 -1.9,50.3 -0.2,56.5 -5.5,52.9 -10.9,56.5 -9.2,50.3 -14.2,46.3 -7.8,46 
									"/>
				<polygon class="st1" points="32.8,40 35,46 41.5,46.3 36.4,50.3 38.2,56.5 32.8,52.9 27.4,56.5 29.2,50.3 24.1,46.3 30.6,46 
									"/>
				<polygon class="st1" points="71.1,40 73.3,46 79.8,46.3 74.7,50.3 76.5,56.5 71.1,52.9 65.7,56.5 67.5,50.3 62.4,46.3 68.9,46 
									"/>
				<polygon class="st1" points="109.4,40 111.7,46 118.1,46.3 113,50.3 114.8,56.5 109.4,52.9 104,56.5 105.8,50.3 100.7,46.3 
					107.2,46 				"/>
				<polygon class="st1" points="147.7,40 150,46 156.4,46.3 151.4,50.3 153.1,56.5 147.7,52.9 142.4,56.5 144.1,50.3 139,46.3 
					145.5,46 				"/>
				<polygon class="st1" points="-23.7,56.5 -21.5,62.6 -15,62.8 -20.1,66.8 -18.4,73.1 -23.7,69.5 -29.1,73.1 -27.4,66.8 
					-32.4,62.8 -26,62.6 				"/>
				<polygon class="st1" points="14.6,56.5 16.8,62.6 23.3,62.8 18.2,66.8 20,73.1 14.6,69.5 9.2,73.1 10.9,66.8 5.9,62.8 
					12.3,62.6 				"/>
				<polygon class="st1" points="52.9,56.5 55.1,62.6 61.6,62.8 56.5,66.8 58.3,73.1 52.9,69.5 47.5,73.1 49.3,66.8 44.2,62.8 
					50.7,62.6 				"/>
				<polygon class="st1" points="91.2,56.5 93.4,62.6 99.9,62.8 94.8,66.8 96.6,73.1 91.2,69.5 85.8,73.1 87.6,66.8 82.5,62.8 
					89,62.6 				"/>
				<polygon class="st1" points="129.5,56.5 131.8,62.6 138.2,62.8 133.1,66.8 134.9,73.1 129.5,69.5 124.1,73.1 125.9,66.8 
					120.8,62.8 127.3,62.6 				"/>
				<polygon class="st1" points="-43.8,73.1 -41.6,79.1 -35.1,79.4 -40.2,83.4 -38.5,89.6 -43.8,86 -49.2,89.6 -47.5,83.4 
					-52.5,79.4 -46.1,79.1 				"/>
				<polygon class="st1" points="-5.5,73.1 -3.3,79.1 3.2,79.4 -1.9,83.4 -0.2,89.6 -5.5,86 -10.9,89.6 -9.2,83.4 -14.2,79.4 
					-7.8,79.1 				"/>
				<polygon class="st1" points="32.8,73.1 35,79.1 41.5,79.4 36.4,83.4 38.2,89.6 32.8,86 27.4,89.6 29.2,83.4 24.1,79.4 
					30.6,79.1 				"/>
				<polygon class="st1" points="71.1,73.1 73.3,79.1 79.8,79.4 74.7,83.4 76.5,89.6 71.1,86 65.7,89.6 67.5,83.4 62.4,79.4 
					68.9,79.1 				"/>
				<polygon class="st1" points="109.4,73.1 111.7,79.1 118.1,79.4 113,83.4 114.8,89.6 109.4,86 104,89.6 105.8,83.4 100.7,79.4 
					107.2,79.1 				"/>
				<polygon class="st1" points="147.7,73.1 150,79.1 156.4,79.4 151.4,83.4 153.1,89.6 147.7,86 142.4,89.6 144.1,83.4 139,79.4 
					145.5,79.1 				"/>
				<polygon class="st1" points="-23.7,89.6 -21.5,95.7 -15,95.9 -20.1,99.9 -18.4,106.2 -23.7,102.6 -29.1,106.2 -27.4,99.9 
					-32.4,95.9 -26,95.7 				"/>
				<polygon class="st1" points="14.6,89.6 16.8,95.7 23.3,95.9 18.2,99.9 20,106.2 14.6,102.6 9.2,106.2 10.9,99.9 5.9,95.9 
					12.3,95.7 				"/>
				<polygon class="st1" points="52.9,89.6 55.1,95.7 61.6,95.9 56.5,99.9 58.3,106.2 52.9,102.6 47.5,106.2 49.3,99.9 44.2,95.9 
					50.7,95.7 				"/>
				<polygon class="st1" points="91.2,89.6 93.4,95.7 99.9,95.9 94.8,99.9 96.6,106.2 91.2,102.6 85.8,106.2 87.6,99.9 82.5,95.9 
					89,95.7 				"/>
				<polygon class="st1" points="129.5,89.6 131.8,95.7 138.2,95.9 133.1,99.9 134.9,106.2 129.5,102.6 124.1,106.2 125.9,99.9 
					120.8,95.9 127.3,95.7 				"/>
				<polygon class="st1" points="-43.8,106.2 -41.6,112.2 -35.1,112.5 -40.2,116.5 -38.5,122.7 -43.8,119.1 -49.2,122.7 
					-47.5,116.5 -52.5,112.5 -46.1,112.2 				"/>
				<polygon class="st1" points="-5.5,106.2 -3.3,112.2 3.2,112.5 -1.9,116.5 -0.2,122.7 -5.5,119.1 -10.9,122.7 -9.2,116.5 
					-14.2,112.5 -7.8,112.2 				"/>
				<polygon class="st1" points="32.8,106.2 35,112.2 41.5,112.5 36.4,116.5 38.2,122.7 32.8,119.1 27.4,122.7 29.2,116.5 
					24.1,112.5 30.6,112.2 				"/>
				<polygon class="st1" points="71.1,106.2 73.3,112.2 79.8,112.5 74.7,116.5 76.5,122.7 71.1,119.1 65.7,122.7 67.5,116.5 
					62.4,112.5 68.9,112.2 				"/>
				<polygon class="st1" points="109.4,106.2 111.7,112.2 118.1,112.5 113,116.5 114.8,122.7 109.4,119.1 104,122.7 105.8,116.5 
					100.7,112.5 107.2,112.2 				"/>
				<polygon class="st1" points="147.7,106.2 150,112.2 156.4,112.5 151.4,116.5 153.1,122.7 147.7,119.1 142.4,122.7 144.1,116.5 
					139,112.5 145.5,112.2 				"/>
				<polygon class="st1" points="-23.7,122.7 -21.5,128.8 -15,129.1 -20.1,133.1 -18.4,139.3 -23.7,135.7 -29.1,139.3 -27.4,133.1 
					-32.4,129.1 -26,128.8 				"/>
				<polygon class="st1" points="14.6,122.7 16.8,128.8 23.3,129.1 18.2,133.1 20,139.3 14.6,135.7 9.2,139.3 10.9,133.1 5.9,129.1 
					12.3,128.8 				"/>
				<polygon class="st1" points="52.9,122.7 55.1,128.8 61.6,129.1 56.5,133.1 58.3,139.3 52.9,135.7 47.5,139.3 49.3,133.1 
					44.2,129.1 50.7,128.8 				"/>
				<polygon class="st1" points="91.2,122.7 93.4,128.8 99.9,129.1 94.8,133.1 96.6,139.3 91.2,135.7 85.8,139.3 87.6,133.1 
					82.5,129.1 89,128.8 				"/>
				<polygon class="st1" points="129.5,122.7 131.8,128.8 138.2,129.1 133.1,133.1 134.9,139.3 129.5,135.7 124.1,139.3 
					125.9,133.1 120.8,129.1 127.3,128.8 				"/>
				<polygon class="st1" points="-43.8,139.3 -41.6,145.3 -35.1,145.6 -40.2,149.6 -38.5,155.8 -43.8,152.2 -49.2,155.8 
					-47.5,149.6 -52.5,145.6 -46.1,145.3 				"/>
				<polygon class="st1" points="-5.5,139.3 -3.3,145.3 3.2,145.6 -1.9,149.6 -0.2,155.8 -5.5,152.2 -10.9,155.8 -9.2,149.6 
					-14.2,145.6 -7.8,145.3 				"/>
				<polygon class="st1" points="32.8,139.3 35,145.3 41.5,145.6 36.4,149.6 38.2,155.8 32.8,152.2 27.4,155.8 29.2,149.6 
					24.1,145.6 30.6,145.3 				"/>
				<polygon class="st1" points="71.1,139.3 73.3,145.3 79.8,145.6 74.7,149.6 76.5,155.8 71.1,152.2 65.7,155.8 67.5,149.6 
					62.4,145.6 68.9,145.3 				"/>
				<polygon class="st1" points="109.4,139.3 111.7,145.3 118.1,145.6 113,149.6 114.8,155.8 109.4,152.2 104,155.8 105.8,149.6 
					100.7,145.6 107.2,145.3 				"/>
				<polygon class="st1" points="147.7,139.3 150,145.3 156.4,145.6 151.4,149.6 153.1,155.8 147.7,152.2 142.4,155.8 144.1,149.6 
					139,145.6 145.5,145.3 				"/>
			</g>
		</g>
	</g>
</g>
</svg>
