<?xml version="1.0" encoding="utf-8"?>
<!-- Generator: Adobe Illustrator 25.4.0, SVG Export Plug-In . SVG Version: 6.00 Build 0)  -->
<svg version="1.1" id="Layer_1" xmlns="http://www.w3.org/2000/svg" xmlns:xlink="http://www.w3.org/1999/xlink" x="0px" y="0px"
	 viewBox="0 0 300 300" style="enable-background:new 0 0 300 300;" xml:space="preserve">
<style type="text/css">
	.st0{fill:#DDDDDD;stroke:#4D4D4D;stroke-width:6;stroke-miterlimit:10;}
</style>
<circle class="st0" cx="150" cy="150" r="148.1"/>
<text transform="matrix(0.8357 -0.5491 0.5491 0.8357 347.9584 16.5659)" style="font-family:'ArialMT'; font-size:11.9976px;"> </text>
<g>
	<path d="M257.1,150.2c0,3.1-0.2,5.7-0.7,7.9s-1.1,4-1.9,5.5c-0.8,1.5-1.8,2.5-2.9,3.2c-1.1,0.7-2.4,1-3.7,1H168v88.6
		c0,1.3-0.3,2.4-1,3.3s-1.7,1.7-3,2.3c-1.4,0.7-3.2,1.2-5.5,1.6s-5.1,0.6-8.5,0.6c-3.2,0-6-0.2-8.4-0.6s-4.2-0.9-5.6-1.6
		c-1.4-0.6-2.4-1.4-3-2.3c-0.7-0.9-1-2-1-3.3v-88.6H52.1c-1.5,0-2.7-0.3-3.8-1c-1.1-0.6-2-1.7-2.8-3.2s-1.5-3.3-1.9-5.5
		c-0.5-2.2-0.7-4.8-0.7-7.9c0-2.9,0.2-5.5,0.7-7.7s1.1-4,1.9-5.5c0.8-1.5,1.7-2.5,2.8-3.2c1.1-0.6,2.2-1,3.5-1H132V44.3
		c0-1.3,0.3-2.5,1-3.5c0.6-1.1,1.7-1.9,3-2.7c1.4-0.7,3.2-1.3,5.6-1.7c2.4-0.4,5.2-0.6,8.4-0.6c3.4,0,6.2,0.2,8.5,0.6
		c2.3,0.4,4.1,1,5.5,1.7s2.4,1.6,3,2.7c0.6,1.1,1,2.2,1,3.5V133h80.1c1.3,0,2.5,0.3,3.5,1c1.1,0.7,2,1.7,2.9,3.2s1.5,3.3,1.9,5.5
		C256.9,144.8,257.1,147.3,257.1,150.2z"/>
</g>
<text transform="matrix(0.8263 0.5632 -0.5632 0.8263 481.0755 -25.3402)" style="font-family:'ArialMT'; font-size:12px;"> </text>
<text transform="matrix(0.8149 0.5796 -0.5796 0.8149 483.8304 -23.4623)" style="font-family:'ArialMT'; font-size:12px;"> </text>
</svg>
