<?xml version="1.0" encoding="utf-8"?>
<!-- Generator: Adobe Illustrator 25.4.0, SVG Export Plug-In . SVG Version: 6.00 Build 0)  -->
<svg version="1.1" id="Layer_1" xmlns="http://www.w3.org/2000/svg" xmlns:xlink="http://www.w3.org/1999/xlink" x="0px" y="0px"
	 viewBox="0 0 300 300" style="enable-background:new 0 0 300 300;" xml:space="preserve">
<g>
	<path d="M9.6,253.3c93.7,0,187.2,0,281.4,0c-0.5,2.3-0.8,4.5-1.5,6.6c-2.4,7.3-6.3,14.3-13.1,20.7c-2.9,2.8-7,5.2-11,7.6
		c-2.4,1.5-6,1.9-9.7,1.9c-70.4,0-140.8,0-211.2,0c-4.1,0-7.8-0.6-10.4-2.2c-4-2.5-8-5-10.8-7.9c-7.5-7.5-11.8-15.6-13.6-24
		C9.4,255.2,9.6,254.3,9.6,253.3z"/>
	<path d="M9.6,61.4c0-5,1.8-9.6,5.3-14.1c7.2-9.1,19.1-16,33.6-21.5c19.5-7.5,41.2-11.9,64.3-14.1c36.3-3.6,72-2.3,106.8,4.9
		c21,4.3,39.7,10.6,54.2,20.3c9.8,6.5,15.9,14,16.9,22.6c0.1,0.6,0,1.2,0,2C197.2,61.4,103.6,61.4,9.6,61.4z"/>
	<path d="M150.3,127.6c42.4,0,84.8,0,127.3,0c13.3,0,21.4,8.2,21.6,21.5c0.1,7.1-1.4,13.4-6.9,18.3c-3.9,3.4-8.5,4.9-13.6,4.9
		c-54.2,0-108.5-0.1-162.7-0.1c-30.7,0-61.4-0.3-92.1,0.2c-13.6,0.2-23.9-8.9-23.1-23.3c0.5-9.8,4.7-17.2,13.1-20.1
		c2.7-0.9,5.7-1.3,8.6-1.3C65.1,127.5,107.7,127.6,150.3,127.6z"/>
</g>
</svg>
