<?xml version="1.0" encoding="utf-8"?>
<!-- Generator: Adobe Illustrator 25.4.0, SVG Export Plug-In . SVG Version: 6.00 Build 0)  -->
<svg version="1.1" id="Layer_1" xmlns="http://www.w3.org/2000/svg" xmlns:xlink="http://www.w3.org/1999/xlink" x="0px" y="0px"
	 viewBox="0 0 300 300" style="enable-background:new 0 0 300 300;" xml:space="preserve">
<style type="text/css">
	.st0{fill:#B5B5B5;}
</style>
<g>
	<path class="st0" d="M46.3,91.6c69.2,0,138.3,0,207.7,0c-0.3,6.1-0.5,12.1-0.8,18.1c-1.4,26.9-2.8,53.7-4.1,80.6
		c-1.4,28.2-2.8,56.3-4.3,84.5c-0.7,13.6-11.2,23.3-24.9,23.3c-46.5,0-93.1,0-139.6,0c-13.8,0-24.2-9.8-24.9-23.6
		c-1.7-32.6-3.3-65.2-5-97.8c-1.3-26.2-2.7-52.5-4.1-78.7C46.2,95.9,46.3,93.9,46.3,91.6z M160.2,189.6c0-18.5,0-37,0-55.6
		c0-6.7-4.7-11.2-11-10.8c-5.6,0.4-9.3,4.8-9.3,11.3c0,28.5,0,57,0,85.5c0,8.4-0.1,16.7,0.1,25.1c0.1,7.5,6.6,12.3,13.4,10
		c4.3-1.4,6.9-5.3,6.9-10.6C160.2,226.2,160.2,207.9,160.2,189.6z M191.7,189.6L191.7,189.6c-0.5,9.4-1.1,18.9-1.6,28.3
		c-0.5,9.1-1.1,18.3-1.4,27.4c-0.2,5.3,3.6,9.4,8.9,10.1c4.6,0.7,9.4-2.3,10.8-6.9c0.5-1.6,0.6-3.4,0.7-5.1c2-36.4,4-72.8,5.9-109.2
		c0.3-6.1-3.8-10.8-9.5-11.1c-5.8-0.3-10.4,3.9-10.7,9.9C193.7,152,192.7,170.8,191.7,189.6z M108.3,189.7
		C108.4,189.7,108.4,189.7,108.3,189.7c-1-18.5-2-37-3-55.5c-0.4-6.8-4.5-11.1-10.7-10.9c-6,0.2-9.9,5.1-9.5,11.9
		c1.3,24.1,2.6,48.2,3.9,72.4c0.7,13,1.4,25.9,2.3,38.9c0.4,5.5,5.2,9.5,10.5,9.2c5.4-0.3,9.5-4.7,9.6-10.1c0-1.6-0.1-3.2-0.2-4.8
		C110.2,223.6,109.3,206.7,108.3,189.7z"/>
	<path class="st0" d="M103.8,42.1c4.8-26.7,26.1-40,45.8-40.2c19.5-0.2,41.6,12.7,46.6,40.2c1,0,2.1,0,3.1,0c20.3,0,40.7,0,61,0
		c9.6,0,16.6,5.5,18.5,14.2c2.3,10.6-5.5,21-16.4,21.6c-0.7,0-1.4,0-2.1,0c-73.5,0-147.1,0-220.6,0c-10.6,0-18.5-6.9-19.1-16.6
		c-0.5-10.6,7.4-19,18.5-19.1c10.2-0.1,20.3,0,30.5,0c10.3,0,20.5,0,30.8,0C101.5,42.1,102.6,42.1,103.8,42.1z M127.2,42
		c15.4,0,30.5,0,45.7,0c-1.5-9.6-12.1-17.7-22.8-17.7C139.3,24.3,128.8,32.3,127.2,42z"/>
</g>
</svg>
