<?xml version="1.0" encoding="utf-8"?>
<!-- Generator: Adobe Illustrator 25.4.0, SVG Export Plug-In . SVG Version: 6.00 Build 0)  -->
<svg version="1.1" id="Layer_1" xmlns="http://www.w3.org/2000/svg" xmlns:xlink="http://www.w3.org/1999/xlink" x="0px" y="0px"
	 viewBox="0 0 300 300" style="enable-background:new 0 0 300 300;" xml:space="preserve">
<style type="text/css">
	.st0{fill:#DDDDDD;stroke:#4D4D4D;stroke-width:6;stroke-miterlimit:10;}
</style>
<circle class="st0" cx="150" cy="150" r="148.1"/>
<text transform="matrix(0.8357 -0.5491 0.5491 0.8357 347.9583 16.5648)" style="font-family:'ArialMT'; font-size:11.997px;"> </text>
<path d="M230.9,229.6c-2.1,2.2-4,3.9-5.9,5.1s-3.6,2-5.2,2.5c-1.6,0.5-3.1,0.4-4.4,0.1c-1.3-0.3-2.5-1.1-3.5-2l-60.2-59.4
	l-60.6,62.7c-0.9,0.9-1.9,1.5-3,1.6c-1.1,0.1-2.4-0.1-3.8-0.6c-1.5-0.5-3.2-1.5-5.2-3c-2-1.4-4.3-3.4-6.8-5.9
	c-2.4-2.4-4.4-4.6-5.9-6.7c-1.5-2.1-2.5-3.8-3.1-5.3c-0.6-1.5-0.9-2.8-0.7-3.9c0.1-1.2,0.6-2.2,1.5-3.1l60.6-62.7L64.4,89.7
	c-1.1-1.1-1.8-2.2-2.2-3.5c-0.4-1.2-0.3-2.7,0.1-4.3s1.1-3.5,2.3-5.3c1.1-1.9,2.8-3.9,4.9-6.1c2-2.1,3.9-3.7,5.8-4.9
	c1.9-1.2,3.6-2,5.2-2.5c1.6-0.5,3-0.5,4.3-0.2c1.2,0.4,2.3,0.9,3.3,1.9l60.4,59.6L209,61.7c0.9-0.9,1.9-1.5,3.1-1.7
	c1.2-0.3,2.6-0.1,4.1,0.3c1.5,0.5,3.3,1.5,5.4,3c2.1,1.5,4.3,3.4,6.7,5.8c2.6,2.5,4.5,4.7,6,6.7c1.5,2,2.4,3.8,3,5.3
	c0.6,1.5,0.7,2.9,0.4,4.1s-0.8,2.3-1.6,3.2l-60.7,62.8l60.3,59.5c1,1,1.7,2.1,2,3.3c0.3,1.3,0.3,2.7,0,4.4c-0.3,1.7-1.1,3.5-2.3,5.3
	C234.4,225.6,232.8,227.6,230.9,229.6z"/>
<text transform="matrix(0.8263 0.5632 -0.5632 0.8263 481.0755 -25.3402)" style="font-family:'ArialMT'; font-size:12px;"> </text>
<text transform="matrix(0.8149 0.5796 -0.5796 0.8149 483.8304 -23.4623)" style="font-family:'ArialMT'; font-size:12px;"> </text>
</svg>
