<?xml version="1.0" encoding="utf-8"?>
<!-- Generator: Adobe Illustrator 25.4.0, SVG Export Plug-In . SVG Version: 6.00 Build 0)  -->
<svg version="1.1" id="Layer_1" xmlns="http://www.w3.org/2000/svg" xmlns:xlink="http://www.w3.org/1999/xlink" x="0px" y="0px"
	 viewBox="0 0 600 100" style="enable-background:new 0 0 600 100;" xml:space="preserve">
<style type="text/css">
	.st0{fill:#39BC39;}
	.st1{fill:#141414;}
</style>
<g>
	<path class="st0" d="M52.6,47.9c0,0,0.1-1.1,0.3-6.8c0-0.1,0-0.9-0.4-1.1c-0.2-0.1-0.4-0.1-0.4-0.1c-0.7-0.1-0.6,0.7-0.7,1.1
		c-0.3,7-0.7,13.9-1,20.9c-0.1,1.6,0.3,3.1,1.3,4.3c2.4,3.1,3.1,6.7,3.3,10.4c0.3,4-0.1,8-0.5,12c-0.1,0.9-0.5,1-1.2,0.9
		c-2.5-0.2-12.8-0.6-15.4-0.3c-0.5,0.1-0.9,0-1.2-0.2c-0.3-0.3-0.3-0.7-0.3-0.9C36,81,35.8,76.7,37,71.7c0.2-1,0.5-1.9,1-3
		c0.2-0.4,0.2-0.5,1.1-2.1c1.3-2.4,1.4-2.8,1.5-3.1c0,0,0.5-1.2,0.9-2.8c2.5-9.9-2-16.6-2-16.6c-1-1.6-2.8-4.1-5.2-4.1
		c-2.3,0-4.2,2.1-5.2,3.9c-3.5,6.3-3,13.5-1.8,16.4c0.8,2,1.9,3.9,1.9,3.9c0.8,1.3,1.7,2.6,1.7,2.6c1.2,1.7,1.5,2.7,2.1,4.3
		c0,0,2.6,6.7-0.5,17.5c-0.2,0.7-0.6,1-0.6,1c-0.3,0.2-0.6,0.3-0.7,0.3c-4,0.5-7.9,1.3-11.9,1.4c-6.8,0.1-9.2-2.6-8-9.4
		c0.6-3.1,0.8-49.3,0-53.9c-0.3-1.6-0.3-3.3,0-4.9c0.5-2.8,2.5-4.1,6.1-4.5c2.9-0.3,5.7,0.2,8.5,0.7c1,0.1,0.8,0.8,0.7,1.4
		c-0.5,2.3-0.5,4.5-0.5,6.8c0,1.5,0.8,2.5,2,2.5c1.3,0,2.1-1.2,1.9-2.7c-0.3-2,0.1-4,0.5-6c0.2-1.3,1.1-1.1,2.1-0.9
		c4.8,0.9,20.9,0.7,24,0c2-0.4,2.1-0.3,2.4,1.7c0.3,1.8,0.5,3.6,0.3,5.4c-0.2,1.2,0.3,2.3,1.7,2.5c1,0.2,2.3-1.1,2.3-2.3
		c-0.1-2.3,0.1-4.6-0.5-6.8c-0.2-0.9-0.1-1.7,0.9-1.8c3.2-0.4,6.4-1,9.7-0.3c3.7,0.7,5.1,3.2,4.8,7c-0.3,4.1,0,55.3,0,58.9
		c0,3.7-1.6,5.5-5.3,6.1c-4.4,0.7-8.6-0.4-13-0.9c-0.1,0-0.4-0.2-0.4-0.2c0,0,0,0.2,0,0.2c0.1,0-1-4-1.3-8.5
		c-0.1-1.6-0.3-6.6,1.3-10.8c1-2.5,1.9-4.2,1.9-4.2c1.4-1.9,2-4,1.8-6.4c-0.4-6.3-0.6-12.7-0.9-19c0-0.5,0-0.9-0.1-1.4
		c0-0.3-0.3-0.5-0.6-0.5c-0.1,0-0.2,0-0.2,0.1c-0.2,0.1-0.3,0.4-0.4,0.5c-0.3,0.9-0.3,1.4-0.3,1.4c0,0,1.1,12.2-0.5,13.7
		c-0.2,0.2-0.5,0.3-0.5,0.3c0,0-0.6,0.2-1.2-0.1c-1.6-0.8-0.5-11.7-0.7-14.6c0-0.4-0.1-1.6-0.6-1.8c0,0-0.1,0-0.3,0
		c-0.2,0.1-0.5,0.4-0.6,1.8c0,2.2,0.4,12.1-0.8,14.1c-0.1,0.2-0.4,0.7-1,0.8c0,0-0.4,0.1-0.9-0.3C52.6,55,52,52.2,52.6,47.9z"/>
	<path class="st1" d="M59.7,26.7c-0.4-4.7-2.2-8.9-6.9-12c-5.9-3.9-14-3.2-18.9,1.6c-3.2,3.1-4.7,6.7-4.8,10.7c0,0.5,0,0.9,0,1.4
		c0,0.6-0.4,1-1.1,1c-0.8,0.1-1.2-0.3-1.4-1c-0.3-1.5-0.1-3,0.1-4.5c0.8-5.3,3.1-10,8.4-13.5c6.4-4.2,15.1-3.6,20.6,1.4
		c5,4.5,6.8,9.9,6.7,15.8c0,0.3-0.1,0.5-0.1,0.8c-0.1,0.6-0.5,0.9-1.3,0.9c-0.8,0-1.2-0.5-1.2-1.1C59.7,27.8,59.7,27.2,59.7,26.7z"
		/>
</g>
<g>
	<path class="st0" d="M323.4,49.6c0-0.7,0-1.5,0-2.2c0-0.7,0-1.4-0.1-2.1c-0.1-0.8-0.2-1.7-0.3-2.6c-0.2-1-0.4-1.9-0.6-2.7
		c-1.3-7.2-7.6-13-16.2-14.5c-7.7-1.3-15.6-0.6-23.3-0.6c-4.1,0-5.9,2.8-5.9,6.7c0,15.2,0,30.5,0,45.7c0,2.5,0.5,3.7,3.3,3.6
		c7.9-0.3,15.9,0.3,23.9-0.5c10.2-1.1,17.3-8.1,18.6-18.5c0-0.1,0.1-1.6,0.1-1.7c0,0,0-0.1,0-0.1c0.3-1.1,0.4-2.2,0.5-3.3
		c0-1.9,0-3.7,0.1-5.6C323.4,50.8,323.4,50.2,323.4,49.6z M311.4,63.2c-2.5,5.6-7.1,7.4-12.7,7.7c-10.6,0.7-10.6,0.6-10.6-9.8v-8.6
		c0-4.9,0.1-9.8,0-14.7c-0.1-2.4,0.7-3.5,3.2-3.2c0.7,0.1,1.4,0,2,0C310.5,34.5,318.5,47.2,311.4,63.2z"/>
	<path class="st1" d="M251.8,41.8c0-4.6-0.1-8.3,0-12c0.1-2.1-1.1-5.1,2.8-5.3c3.5-0.1,7,0,8.2,4.2c0.3,1,0.3,2,0.3,3
		c0,9.8-0.2,19.7,0.1,29.5c0.5,17.9-13.3,21.5-24.5,20.5c-9.2-0.8-14.6-6.5-16-15.7c-0.7-4.6-0.7-9.1,0.1-13.7
		C225.1,39.4,238.5,30.5,251.8,41.8z M233.7,60.2c0.1,1.1,0.1,3.4,0.8,5.4c1.3,3.9,3.9,6.7,8.5,6.6c4.6,0,7-2.7,8.2-6.9
		c1.2-4.2,1.1-8.4-0.1-12.5c-1.1-3.7-3.6-6-7.7-6.3c-4-0.3-6.7,1.6-8.5,5.1C233.7,54.1,233.8,56.6,233.7,60.2z"/>
	<path class="st0" d="M497.2,62.1c-3.7,0-7.5,0.1-11.2,0c-2.5-0.1-2.8,1-2.4,3c0.6,3,1.9,5.5,4.9,6.6c3.2,1.2,6.9,1.5,9.1-1.1
		c3.3-4,7.4-2.5,11.2-2.9c1.9-0.2,1.9,1,1.3,2.3c-0.6,1.4-1.2,2.9-2.1,4c-5.3,7.1-12.7,8.6-20.9,7.3c-7.2-1.1-11.7-5.6-13.9-12.5
		c-1.8-5.8-2-11.7-0.7-17.6c2.2-9.8,9.9-15.3,20.1-14.8c10.4,0.6,17,6.8,18.5,17.4c1.2,8.1,1.2,8.1-6.9,8.1
		C501.9,62.1,499.5,62.1,497.2,62.1z M491.2,55c1.7,0,3.4-0.1,5.1,0c3.5,0.4,4.1-0.9,2.9-4c-1.2-3-3.3-4.6-6.4-5
		c-3.3-0.4-5.9,0.8-7.9,3.4c-1,1.4-1.9,3.1-1.2,4.7c0.7,1.8,2.6,0.7,4,0.9C488.8,55.1,490,55,491.2,55z"/>
	<path class="st0" d="M355.4,36.6c-9.6-1.3-17.6,3.5-20.9,11.9c-0.3,0.8-0.5,1.8-0.7,2.8c-0.2,1.1-0.4,2.1-0.5,3
		c0,0.3-0.4,2.6-0.4,3.6c-0.1,1.1,0,2.1,0,3c0,0.1,0,0.2,0,0.2c0.1,2.3,0.5,4.5,1.1,6.7c2.1,7.5,8,12.8,15.4,13.5
		c9.9,1.1,17.7-2.4,21.2-9.6c0.6-1.2,3.1-3.7-0.6-4c-3.7-0.3-7.4-0.9-10.9,2.4c-5.1,4.8-12.5,1.9-14.2-4.9c-0.6-2.4-0.4-3.5,2.4-3.4
		c3.7,0.2,7.5,0,11.2,0c3.9,0,7.8,0,11.7,0c1.4,0,2.4-0.1,2.7-2.1C374.4,48.4,366.9,38.2,355.4,36.6z M360.8,53.5
		c-0.5,3-3.9,0.8-6,1.4c-0.6,0.2-1.3,0-2,0c-1.2,0-2.4,0.1-3.6,0c-1.6-0.2-3.9,0.9-4.5-0.9c-0.7-1.9,0.5-4,2-5.5
		c2.6-2.7,5.8-3.5,9.3-2.1C359.1,47.8,361.3,50.5,360.8,53.5z"/>
	<path class="st0" d="M552.8,37.7c12.1-0.6,12.2-0.7,15.3,10c1.7,6,4.1,11.8,4.6,18.6c2.1-1.6,3-3.5,3.6-5.7
		c1.4-5.1,2.9-10.1,4.2-15.2c2-7.4,2.9-8.2,10.7-8c1,0,2,0.1,3.5,0.3c-2.4,6.6-4.9,13-7,19.4c-3.2,9.5-6,19-9.2,28.5
		c-3.1,9.3-7.1,11.7-16.7,11.1c-3.7-0.2-2.9-2.6-2.8-4.5c0.1-1.9-1.5-4.7,2.8-4.9c6.5-0.3,7.5-2.3,5.3-8.6
		C562.4,65.2,557.6,51.6,552.8,37.7z"/>
	<path class="st1" d="M214.7,59.4c0,8.6-2.2,16.4-10.5,20.4c-7.7,3.7-15.8,3.3-22.5-2.3c-8-6.7-7.9-16.2-6.1-25.3
		c2.8-14.5,18.5-20.6,30.7-12.5C211.9,43.4,214.6,49.8,214.7,59.4z M203.3,58.7c0-1.2,0.1-2.4,0-3.5c-0.6-5-4.7-9.2-8.7-9.1
		c-4.6,0.1-7.9,3.6-8.4,9.2c-0.4,3.9-0.3,7.8,0.9,11.6c1,3.3,3.3,5,6.6,5.5c3.2,0.5,5.6-0.8,7.4-3.4C203,65.8,203.5,62.4,203.3,58.7
		z"/>
	<path class="st1" d="M106,25c5.3,0,10.5,0.1,15.8,0c4-0.1,3.1,2.6,3.2,4.8c0,2.3,0.7,4.9-3.2,4.8c-7-0.2-13.9,0.2-20.9-0.1
		c-4.3-0.2-5.7,1.3-5.3,5.5c0.3,3.4-1,7.4,5.1,6.7c3.8-0.5,7.8-0.3,11.7,0c1.8,0.1,4.9-1.6,5.2,2.1c0.3,3.3-0.7,6.4-4.3,7.1
		c-2.9,0.6-6.1,0.5-9.1,0.6c-8.2,0.1-8.2,0-8.3,8c0,4.2-0.1,8.5,0.1,12.7c0.1,3-0.8,4.1-4,4.1c-7.7,0-7.8,0.2-7.8-7.6
		c0-13.4,0-26.8,0-40.2c0-7.2,1.3-8.4,8.7-8.5C97.2,25,101.6,25,106,25z"/>
	<path class="st1" d="M166.9,59.4c0,16.8-11.6,26.2-26.7,21.5c-8.7-2.7-12-9.3-12.9-17.6c-0.4-3.7-0.4-7.4,0.5-11.1
		c2.8-11.7,9.9-16.6,22.4-15.5c9.5,0.8,16.2,8.5,16.8,19.2C167,57,166.9,58.2,166.9,59.4z M155.8,59.2c-0.2-1.8-0.1-3.8-0.6-5.5
		c-1-4.1-3.4-7.3-7.9-7.4c-4.6-0.1-7.5,2.7-8.6,7.2c-1.2,4.9-0.8,9.8,1,14.4c1.2,2.9,3.6,4.4,6.7,4.6c3,0.2,5.2-1.1,6.9-3.5
		C155.5,66,155.8,62.6,155.8,59.2z"/>
	<path class="st0" d="M463.6,37.9c-4.8,13.6-9.4,26.7-13.9,39.9c-0.9,2.5-2.1,3.3-4.7,3.3c-8.1,0-8,0.1-10.7-7.6
		c-4.1-11.8-8.3-23.6-12.4-35.3c0.5-0.3,0.7-0.4,0.8-0.4c11-1,11-1,13.8,9.7c1.7,6.3,3.6,12.6,6.3,18.8c1.9-6.3,3.8-12.5,5.7-18.8
		C451.7,37,452.3,36.6,463.6,37.9z"/>
	<path class="st0" d="M381.7,53.1c0-7.8,0-15.6,0-23.4c0-2.1-1.2-5,3-4.8c3.6,0.2,7.4-0.2,8.3,4.6c0.3,1.5,0.1,3,0.1,4.6
		c0,14.2-0.1,28.5,0.1,42.7c0,3.1-0.5,4.9-4.1,4.2c-1.3-0.2-2.7-0.2-4.1,0c-2.8,0.3-3.5-0.9-3.4-3.5
		C381.8,69.3,381.7,61.2,381.7,53.1z"/>
	<path class="st0" d="M520.2,67.1c0.1-4.6-0.4-9.6,0.9-14.7c2.4-9.3,12-16,21.6-15c1.5,0.2,2.1,0.7,2.1,2.1c0,1.5-0.1,3.1,0,4.6
		c0.3,3.2,0.1,5.1-4.3,5.1c-6.3,0-8.7,3-8.8,9.3c-0.1,6.3-0.2,12.5,0,18.8c0.1,2.9-0.9,3.7-3.8,3.7c-7.6,0-7.6,0.1-7.6-7.4
		C520.2,71.7,520.2,69.6,520.2,67.1z"/>
	<g>
		<path class="st0" d="M409.4,33.4c-3.6,0.2-6.7,0.8-6.1-4.3c0.3-2.8,0.1-4.8,4-4.5c5,0.3,7.4,2.1,7.3,6.3
			C414.4,35.8,410.6,32.3,409.4,33.4z"/>
		<path class="st0" d="M414.4,61.2c0,4.6-0.4,9.2,0.1,13.7c0.7,5.5-1.6,6.9-6.4,6.1c-1.8-0.3-4.9,1.4-4.9-2.5c0-12.9,0-25.8,0-38.6
			c0-3.2,2.3-2.3,3.9-2.3c3.8-0.2,6.8,1.1,7.2,5.4c0.3,3.4,0.1,6.8,0.1,10.2C414.4,55.8,414.4,58.5,414.4,61.2z"/>
	</g>
</g>
</svg>
