<?xml version="1.0" encoding="utf-8"?>
<!-- Generator: Adobe Illustrator 25.4.0, SVG Export Plug-In . SVG Version: 6.00 Build 0)  -->
<svg version="1.1" id="Layer_1" xmlns="http://www.w3.org/2000/svg" xmlns:xlink="http://www.w3.org/1999/xlink" x="0px" y="0px"
	 viewBox="0 0 300 300" style="enable-background:new 0 0 300 300;" xml:space="preserve">
<style type="text/css">
	.st0{fill:#39BC39;}
	.st1{fill:#141414;}
	.st2{fill:#8EB741;}
</style>
<g>
	<path class="st0" d="M112.4,153.1c0,0,0.4-2.9,0.7-17.9c0-0.3,0-2.2-1-3c-0.5-0.3-1-0.4-1-0.4c-1.9-0.1-1.6,1.7-1.7,3
		c-0.9,18.2-1.8,36.3-2.7,54.5c-0.2,4.2,0.9,8.2,3.4,11.3c6.3,8,8.1,17.5,8.7,27.2c0.7,10.4-0.3,20.8-1.2,31.2
		c-0.2,2.4-1.4,2.5-3.2,2.4c-6.5-0.6-33.3-1.6-40.1-0.7c-1.3,0.2-2.4,0.1-3.1-0.5c-0.8-0.7-0.9-1.8-0.9-2.3
		c-1.1-18.5-1.7-29.7,1.3-42.7c0.6-2.6,1.3-5,2.5-7.8c0.5-1,0.6-1.3,2.8-5.5c3.3-6.3,3.7-7.3,4-8c0,0,1.3-3.2,2.4-7.3
		c6.5-25.7-5.3-43.3-5.3-43.3c-2.7-4-7.2-10.7-13.6-10.7c-6,0-10.9,5.4-13.6,10.3c-9.2,16.5-7.7,35.2-4.8,42.8
		c2.1,5.3,4.9,10.1,4.9,10.1c2.1,3.4,4.5,6.8,4.5,6.8c3.1,4.3,3.9,6.9,5.4,11.3c0,0,6.9,17.4-1.2,45.6c-0.5,1.8-1.7,2.7-1.7,2.7
		c-0.8,0.6-1.6,0.8-1.9,0.8c-10.4,1.2-20.6,3.3-31.1,3.6C7.2,267,0.9,259.7,4,242.2c1.5-8.2,2.2-128.6-0.1-140.5
		c-0.8-4.2-0.8-8.6,0-12.9c1.4-7.2,6.5-10.8,16-11.6c7.5-0.7,14.8,0.6,22.2,1.7c2.5,0.4,2.2,2.1,1.8,3.7c-1.2,5.9-1.3,11.8-1.3,17.8
		c0,3.8,2.2,6.5,5.3,6.4c3.3-0.1,5.6-3.1,5-7c-0.8-5.3,0.3-10.4,1.2-15.5c0.6-3.4,3-2.9,5.5-2.4c12.5,2.4,54.4,1.7,62.6,0.1
		c5.1-1,5.5-0.7,6.3,4.5c0.7,4.7,1.4,9.4,0.7,14.2c-0.5,3.2,0.8,6,4.4,6.6c2.7,0.5,6-2.9,6-6c-0.1-5.9,0.3-12-1.2-17.8
		c-0.6-2.4-0.2-4.4,2.4-4.7c8.4-0.9,16.6-2.5,25.3-0.8c9.6,1.8,13.3,8.5,12.5,18.4c-0.9,10.6,0.1,144.4,0,153.7
		c0,9.6-4.2,14.5-13.8,16c-11.4,1.8-22.6-1-33.8-2.3c-0.1,0-1-0.6-1.2-0.5c-0.1,0.1,0,0.4,0.1,0.4c0.2,0-2.7-10.4-3.3-22.1
		c-0.2-4.2-0.9-17.3,3.3-28c2.5-6.5,5-10.9,5-10.9c3.8-5,5.1-10.3,4.7-16.7c-1.1-16.5-1.6-33.1-2.3-49.6c-0.1-1.2-0.1-2.4-0.3-3.5
		c-0.1-0.8-0.7-1.4-1.5-1.4c-0.3,0-0.5,0.1-0.6,0.2c-0.6,0.3-0.9,1.1-1,1.3c-0.8,2.2-0.7,3.8-0.7,3.8s2.9,31.8-1.3,35.7
		c-0.6,0.5-1.3,0.8-1.3,0.8s-1.5,0.5-3.2-0.3c-4.1-2-1.3-30.5-1.8-38.1c-0.1-1-0.3-4.2-1.6-4.6c0,0-0.3-0.1-0.7,0
		c-0.5,0.2-1.4,0.9-1.5,4.8c-0.1,5.6,1.1,31.6-2.2,36.7c-0.3,0.5-1.2,1.8-2.6,2.1c0,0-1.1,0.2-2.4-0.7
		C112.2,171.7,110.9,164.3,112.4,153.1z"/>
	<path class="st1" d="M131,95.9c-1-15.4-5.7-29.2-18-39.4c-15.5-12.8-36.5-10.4-49.3,5.1C55.2,71.9,51.4,83.8,51.1,97
		c0,1.5,0.1,3,0,4.5c-0.1,1.9-1,3.2-2.9,3.4c-2.2,0.2-3.2-1.1-3.6-3.2c-0.8-4.9-0.3-9.8,0.3-14.7c2.1-17.4,8-33,22-44.5
		c16.7-13.8,39.3-11.7,53.7,4.6C133.7,62,138.3,79.8,138,99.2c0,0.9-0.2,1.8-0.3,2.7c-0.3,1.8-1.3,3.1-3.3,3
		c-2.2-0.1-3.1-1.6-3.2-3.6C130.9,99.5,131,97.7,131,95.9z"/>
</g>
<g>
	<path class="st1" d="M286.4,96.3c0-2.6-0.1-4.7,0-6.7c0-1.2-0.6-2.9,1.6-3c2-0.1,3.9,0,4.6,2.4c0.2,0.5,0.2,1.1,0.2,1.7
		c0,5.5-0.1,11.1,0,16.6c0.3,10.1-7.5,12.1-13.8,11.5c-5.2-0.5-8.2-3.7-9-8.8c-0.4-2.6-0.4-5.1,0.1-7.7C271.4,95,279,90,286.4,96.3z
		 M276.3,106.7c0.1,0.6,0,1.9,0.4,3.1c0.8,2.2,2.2,3.8,4.8,3.7c2.6,0,4-1.5,4.6-3.9c0.7-2.3,0.6-4.7,0-7c-0.6-2.1-2-3.4-4.3-3.6
		c-2.3-0.2-3.8,0.9-4.8,2.9C276.3,103.2,276.3,104.7,276.3,106.7z"/>
	<path class="st0" d="M265.6,106.2c0,4.9-1.2,9.2-5.9,11.5c-4.3,2.1-8.9,1.9-12.7-1.3c-4.5-3.8-4.4-9.1-3.5-14.2
		c1.5-8.1,10.4-11.6,17.3-7C264,97.3,265.5,100.8,265.6,106.2z M259.2,105.9c0-0.7,0.1-1.3,0-2c-0.3-2.8-2.6-5.2-4.9-5.1
		c-2.6,0.1-4.5,2-4.7,5.2c-0.2,2.2-0.1,4.4,0.5,6.5c0.6,1.9,1.8,2.8,3.7,3.1c1.8,0.3,3.2-0.4,4.2-1.9
		C259,109.9,259.3,107.9,259.2,105.9z"/>
	<path class="st1" d="M204.4,86.9c3,0,5.9,0.1,8.9,0c2.2-0.1,1.8,1.5,1.8,2.7c0,1.3,0.4,2.8-1.8,2.7c-3.9-0.1-7.8,0.1-11.7-0.1
		c-2.4-0.1-3.2,0.7-3,3.1c0.2,1.9-0.6,4.2,2.8,3.8c2.2-0.3,4.4-0.1,6.6,0c1,0.1,2.8-0.9,2.9,1.2c0.2,1.8-0.4,3.6-2.4,4
		c-1.7,0.4-3.4,0.3-5.1,0.3c-4.6,0-4.6,0-4.7,4.5c0,2.4-0.1,4.8,0,7.1c0.1,1.7-0.5,2.3-2.3,2.3c-4.4,0-4.4,0.1-4.4-4.3
		c0-7.5,0-15.1,0-22.6c0-4.1,0.7-4.8,4.9-4.8C199.4,86.9,201.9,86.9,204.4,86.9z"/>
	<path class="st0" d="M238.7,106.2c0,9.5-6.5,14.7-15,12.1c-4.9-1.5-6.8-5.2-7.3-9.9c-0.2-2.1-0.2-4.2,0.3-6.2
		c1.6-6.6,5.6-9.4,12.6-8.7c5.4,0.5,9.1,4.8,9.4,10.8C238.7,104.9,238.7,105.6,238.7,106.2z M232.4,106.1c-0.1-1-0.1-2.1-0.3-3.1
		c-0.6-2.3-1.9-4.1-4.4-4.2c-2.6-0.1-4.2,1.5-4.8,4c-0.7,2.8-0.5,5.5,0.6,8.1c0.7,1.6,2,2.5,3.8,2.6c1.7,0.1,3-0.6,3.9-2
		C232.2,109.9,232.4,108,232.4,106.1z"/>
</g>
<g>
	<path class="st1" d="M236.3,149c1.2,2.9,0.7,5.8,0.3,8.7c-0.7,0-0.8,0.3-0.6,0.9c-0.7,6-4.7,10-10.5,10.7c-4.5,0.5-9,0.1-13.4,0.3
		c-1.6,0.1-1.9-0.6-1.9-2c0-8.6,0-17.1,0-25.7c0-2.2,1-3.8,3.3-3.8c4.4,0,8.8-0.4,13.1,0.3c5.6,0.9,9.3,5,9.3,9.9
		C235.9,148.6,235.7,149,236.3,149z M216.5,153.5c0,1.6,0,3.2,0,4.9c0,5.9,0,5.9,6,5.5c3.1-0.2,5.7-1.2,7.1-4.4
		c4-9-0.5-16.2-10.2-16.1c-0.4,0-0.8,0-1.1,0c-1.4-0.2-1.8,0.5-1.8,1.8C216.6,148,216.5,150.8,216.5,153.5z"/>
	<path class="st0" d="M256.1,159c-2.1,0-4.2,0.1-6.3,0c-1.6-0.1-1.7,0.6-1.4,1.9c0.9,3.8,5.1,5.4,8,2.7c2-1.9,4.1-1.5,6.1-1.4
		c2.1,0.2,0.7,1.6,0.3,2.3c-2,4.1-6.4,6-11.9,5.4c-4.2-0.4-7.5-3.4-8.7-7.6c-0.6-2.3-0.8-4.7-0.6-7.1c0.6-7.1,5.9-11.4,12.6-10.5
		c6.5,0.9,10.7,6.6,9.8,13.2c-0.2,1.1-0.7,1.2-1.5,1.2C260.5,159,258.3,159,256.1,159z M252.9,155c0.4,0,0.8,0.1,1.1,0
		c1.2-0.3,3.1,0.9,3.4-0.8c0.3-1.7-1-3.2-2.7-3.9c-2-0.8-3.8-0.3-5.2,1.2c-0.8,0.8-1.5,2-1.1,3.1c0.4,1,1.7,0.4,2.6,0.5
		C251.5,155,252.2,155,252.9,155z"/>
	<path class="st1" d="M269.2,153.9c0-4.4,0-8.8,0-13.2c0-1.2-0.7-2.8,1.7-2.7c2,0.1,4.2-0.1,4.7,2.6c0.1,0.8,0.1,1.7,0.1,2.6
		c0,8,0,16,0,24.1c0,1.7-0.3,2.7-2.3,2.4c-0.7-0.1-1.5-0.1-2.3,0c-1.6,0.2-1.9-0.5-1.9-2C269.2,163,269.2,158.5,269.2,153.9z"/>
</g>
<g>
	<path class="st0" d="M233.4,223.9c6.8-0.4,6.9-0.4,8.6,5.6c1,3.4,2.3,6.7,2.6,10.5c1.2-0.9,1.7-2,2-3.2c0.8-2.9,1.6-5.7,2.4-8.5
		c1.1-4.2,1.7-4.6,6-4.5c0.6,0,1.1,0.1,2,0.1c-1.4,3.7-2.7,7.3-4,10.9c-1.8,5.3-3.4,10.7-5.2,16c-1.7,5.2-4,6.6-9.4,6.2
		c-2.1-0.1-1.7-1.4-1.6-2.6c0.1-1.1-0.8-2.6,1.6-2.8c3.6-0.2,4.2-1.3,3-4.8C238.8,239.4,236.1,231.8,233.4,223.9z"/>
	<path class="st1" d="M215.1,240.5c0.1-2.6-0.2-5.4,0.5-8.3c1.4-5.3,6.8-9,12.1-8.4c0.9,0.1,1.2,0.4,1.2,1.2c0,0.9-0.1,1.7,0,2.6
		c0.2,1.8,0,2.9-2.4,2.9c-3.5,0-4.9,1.7-5,5.2s-0.1,7.1,0,10.6c0.1,1.6-0.5,2.1-2.1,2.1c-4.3,0-4.3,0.1-4.3-4.1
		C215.1,243,215.1,241.9,215.1,240.5z"/>
</g>
<g>
	<path class="st1" d="M218.2,184c-2,0.1-3.8,0.5-3.5-2.4c0.2-1.6,0.1-2.7,2.2-2.6c2.8,0.2,4.2,1.2,4.1,3.6
		C221,185.4,218.9,183.4,218.2,184z"/>
	<path class="st1" d="M267.6,200.1c-2.1,0-4.2,0.1-6.3,0c-1.4-0.1-1.6,0.6-1.4,1.7c0.3,1.7,1.1,3.1,2.7,3.7c1.8,0.7,3.9,0.8,5.1-0.6
		c1.9-2.3,4.2-1.4,6.3-1.6c1.1-0.1,1.1,0.6,0.8,1.3c-0.3,0.8-0.7,1.6-1.2,2.3c-3,4-7.2,4.8-11.8,4.1c-4.1-0.6-6.6-3.1-7.8-7
		c-1-3.3-1.1-6.6-0.4-9.9c1.3-5.5,5.6-8.6,11.3-8.3c5.9,0.3,9.6,3.8,10.4,9.8c0.7,4.6,0.7,4.6-3.9,4.6
		C270.2,200.1,268.9,200.1,267.6,200.1z M264.2,196.1c0.9,0,1.9-0.1,2.8,0c1.9,0.2,2.3-0.5,1.6-2.3c-0.7-1.7-1.9-2.6-3.6-2.8
		c-1.8-0.2-3.3,0.4-4.5,1.9c-0.6,0.8-1.1,1.7-0.7,2.6c0.4,1,1.5,0.4,2.3,0.5C262.9,196.1,263.6,196.1,264.2,196.1z"/>
	<path class="st0" d="M248.7,186.5c-2.7,7.7-5.3,15-7.8,22.4c-0.5,1.4-1.2,1.8-2.7,1.9c-4.5,0-4.5,0.1-6-4.3
		c-2.3-6.7-4.7-13.3-7-19.9c0.3-0.2,0.4-0.2,0.5-0.2c6.2-0.6,6.2-0.6,7.8,5.4c1,3.6,2,7.1,3.6,10.6c1.1-3.5,2.2-7.1,3.2-10.6
		C242,185.9,242.3,185.7,248.7,186.5z"/>
	<path class="st1" d="M221,199.6c0,2.6-0.2,5.2,0.1,7.7c0.4,3.1-0.9,3.9-3.6,3.4c-1-0.2-2.7,0.8-2.7-1.4c0-7.2,0-14.5,0-21.7
		c0-1.8,1.3-1.3,2.2-1.3c2.2-0.1,3.8,0.6,4.1,3c0.2,1.9,0.1,3.8,0.1,5.7C221,196.5,221,198,221,199.6z"/>
</g>
<path class="st2" d="M141,259.6c-0.6,0-0.5-0.4-0.3-0.8c0.3,0.1,0.8,0.1,0.7,0.6C141.4,259.5,141.2,259.6,141,259.6z"/>
</svg>
