<?xml version="1.0" encoding="utf-8"?>
<!-- Generator: Adobe Illustrator 25.4.0, SVG Export Plug-In . SVG Version: 6.00 Build 0)  -->
<svg version="1.1" id="Layer_1" xmlns="http://www.w3.org/2000/svg" xmlns:xlink="http://www.w3.org/1999/xlink" x="0px" y="0px"
	 viewBox="0 0 300 300" style="enable-background:new 0 0 300 300;" xml:space="preserve">
<style type="text/css">
	.st0{fill:none;}
	.st1{fill:#FFC880;stroke:#000000;stroke-width:2;stroke-miterlimit:10;}
	.st2{font-family:'ArialMT';}
	.st3{font-size:12px;}
	.st4{font-family:'BerlinSansFB-Reg';}
	.st5{font-size:23.2778px;}
	.st6{font-size:37.8264px;}
	.st7{font-family:'HarlowSolid';}
	.st8{font-size:46.5555px;}
</style>
<path id="SVGID_x5F_1_x5F_" class="st0" d="M368.2,272.2c0-92.9,75.3-168.2,168.2-168.2s168.2,75.3,168.2,168.2"/>
<text transform="matrix(1 0 0 1 386.3516 38.2)" class="st2 st3"> </text>
<g>
	<polygon class="st1" points="25.6,77.3 151.6,4.5 277.6,77.3 277.6,222.7 151.6,295.5 25.6,222.7 	"/>
	<text transform="matrix(0.8357 -0.5491 0.5491 0.8357 57.345 87.5621)" class="st2 st3"> </text>
	<text transform="matrix(0.8668 -0.4987 0.4987 0.8668 60.0288 85.5578)" class="st4 st5">Q</text>
	<text transform="matrix(0.9104 -0.4136 0.4136 0.9104 74.6853 77.1657)" class="st4 st5">U</text>
	<text transform="matrix(0.9445 -0.3284 0.3284 0.9445 88.6854 70.8061)" class="st4 st5">A</text>
	<text transform="matrix(0.9683 -0.2499 0.2499 0.9683 103.2059 65.8283)" class="st4 st5">L</text>
	<text transform="matrix(0.9801 -0.1987 0.1987 0.9801 114.8828 62.9037)" class="st4 st5">I</text>
	<text transform="matrix(0.9891 -0.1473 0.1473 0.9891 120.2715 61.7252)" class="st4 st5">T</text>
	<text transform="matrix(0.9974 -7.146107e-02 7.146107e-02 0.9974 132.0898 59.9323)" class="st4 st5">Y</text>
	<text transform="matrix(0.9999 -1.360736e-02 1.360736e-02 0.9999 145.7248 59.0694)" class="st4 st5"> </text>
	<text transform="matrix(0.9989 4.670945e-02 -4.670945e-02 0.9989 151.5485 58.8585)" class="st4 st5">P</text>
	<text transform="matrix(0.9915 0.1303 -0.1303 0.9915 166.07 59.5524)" class="st4 st5">R</text>
	<text transform="matrix(0.9783 0.207 -0.207 0.9783 179.7888 61.3823)" class="st4 st5">E</text>
	<text transform="matrix(0.9553 0.2955 -0.2955 0.9553 192.0928 63.8501)" class="st4 st5">M</text>
	<text transform="matrix(0.932 0.3623 -0.3623 0.932 209.5915 69.5006)" class="st4 st5">I</text>
	<text transform="matrix(0.9078 0.4194 -0.4194 0.9078 214.7917 71.359)" class="st4 st5">U</text>
	<text transform="matrix(0.8611 0.5084 -0.5084 0.8611 228.7911 77.7417)" class="st4 st5">M</text>
	<text transform="matrix(0.8263 0.5632 -0.5632 0.8263 244.4996 87.3006)" class="st2 st3"> </text>
	<text transform="matrix(0.8149 0.5796 -0.5796 0.8149 247.2545 89.1786)" class="st2 st3"> </text>
	<polygon points="107.7,234 112,242.6 121.5,244 114.6,250.7 116.2,260.1 107.7,255.7 99.2,260.1 100.8,250.7 94,244 103.5,242.6 	
		"/>
	<rect x="44.8" y="198" class="st0" width="214.1" height="35.7"/>
	<text transform="matrix(1 0 0 1 44.7636 224.1867)" class="st4 st6">Burger House</text>
	<rect x="57" y="152.8" class="st0" width="187.2" height="56.4"/>
	<text transform="matrix(1 0 0 1 56.9608 184.1154)" class="st7 st8">Holy Cow</text>
	<polygon points="150.6,254.5 154.8,263.2 164.3,264.5 157.4,271.2 159.1,280.7 150.6,276.2 142.1,280.7 143.7,271.2 136.8,264.5 
		146.3,263.2 	"/>
	<g>
		<path d="M165.8,83.4c-1.5,0.1-0.8,5.7,1.1,5.6c1.9-0.2,6.3-1.1,8.2-3.3c1.9-2.2,1.7-4.1,1.7-4.6c0-0.9-1.2-1.1-1.5-0.2
			C174.6,82.6,171.1,83,165.8,83.4z"/>
		<path d="M143,79.4c2.4-0.5,9.8-1.7,16.5,2.7c0.3,0.2,0.5,0.7,0.3,1.1l0,0c-0.1,0.3-0.3,0.5-0.6,0.5c-0.7,0.2-2.2,0.6-3.2,2
			c-0.6,0.8-0.9,1.6-1.2,2.3c-0.4,1-1.3,1.8-2.3,1.9h-0.1c-0.8,0.1-1.5-0.1-2.1-0.6l0,0c-0.4-0.3-0.9-0.4-1.4-0.1l-1,0.7
			c-0.4,0.3-0.9,0.2-1.3,0l-0.3-0.2c-0.5-0.4-0.6-1.1-0.3-1.6c0.6-0.9,1.4-2.2,1.9-3c0.8-1.3,0.3-2.8-1.6-3.1
			c-1.2-0.2-2.5-0.4-3.2-0.5c-0.4-0.1-0.7-0.4-0.7-0.7v-0.3C142.3,79.9,142.6,79.5,143,79.4z"/>
		<path d="M134.8,131l8.8,16.2c0.3,0.6,1,1,1.7,1h2c0.5,0,0.9-0.2,1.3-0.5l3.4-3c0.2-0.2,0.3-0.5,0.3-0.8l-0.2-3.1
			c0-0.6-0.7-1-1.2-0.8l-4.4,1.5c-1.2,0.4-2.5,0-3.2-1c-2.3-3.1-6.9-9.3-7.5-10.1C135.1,129.6,134.4,130.2,134.8,131z"/>
		<path d="M139,95.5l-0.6-1.9c-0.1-0.2-0.2-0.3-0.3-0.4l-1.9-1.1c-0.2-0.1-0.5-0.1-0.8,0l-1.5,0.8l1.9-4.6c0.1-0.2,0.1-0.5-0.1-0.6
			l0,0c-0.2-0.2-0.5-0.3-0.7-0.2l-3.8,1.3l-5.8-7.7c-0.7-1-1.9-1.6-3.1-1.6c-2.1-0.1-5.5-0.2-8.5-0.3c-4.5-0.1-5.3,4.2-4,6.1
			c1,1.5,5.5,8,7.5,11c0.6,0.9,1.6,1.5,2.7,1.6l2.5,0.2l0.9,0.3c1.2,0.5,2.5,0.5,3.7,0l0.6-0.2v1.2c0,0.3,0.1,0.5,0.4,0.7l0.6,0.4
			c0.4,0.3,1,0.1,1.2-0.4l2.3-5.5c0,0-0.7,13.4-0.8,15.5s0.2,3,2.1,3.1c1.9,0,3.3-3.9,4.6-3.8c-0.1,1.8,2.6,2.2,2.7,0
			c0.1-1.6,0.3-6.8,0.4-9.5c0-1.1-0.3-2.1-1-2.9L139,95.5z M124.7,94.3L124.7,94.3c-0.1-0.4-0.5-0.6-0.7-0.3c-0.3,0.3-0.7,0.8-1,1.5
			c0,0-0.3-0.7-0.4-1.7c0-0.4-0.5-0.5-0.7-0.3c-0.5,0.4-1.1,0.7-1.9,0.2c-1.5-0.9-4-3.6-4.6-6.7c-0.1-0.3,0.3-0.4,0.5-0.2
			c0.6,0.7,1.6,1.4,3.4,1.5c2.7,0.1,4.7,0.5,6,1.4c0.2,0.1,0.4-0.1,0.3-0.3c-0.2-0.5-0.6-1.1-1.4-1.8c0,0,3.8,0.7,5.7,4.9l-0.9,2.2
			C128.1,96.5,125.2,96.3,124.7,94.3z M133.1,98.3c0.1-0.1,0.3-0.7,1.3-0.8c1-0.1,1.2,0.5,1.3,0.6s0,0.2-0.2,0.2s-2.1,0.2-2.3,0.2
			C133.2,98.6,133.1,98.5,133.1,98.3z M134.4,101c-0.2,0-0.8,0-1.2-0.7c-0.4-0.6-0.1-1.2-0.1-1.3c0-0.1,0.2-0.2,0.3,0
			c0.1,0.7,0.6,1.6,1.2,1.7C134.7,100.8,134.6,101,134.4,101z M136.1,100.1c-0.2,0.7-0.8,0.8-0.9,0.9c-0.1,0-0.4-0.1-0.3-0.2
			c0.1-0.2,0.7-1.9,0.8-2c0-0.1,0.3-0.1,0.3,0C136,98.8,136.3,99.4,136.1,100.1z"/>
		<path d="M180.4,104.3c0.7,0,1.3-0.3,1.7-0.8c1.8-2.2,6.8-8.1,8.5-10.2c2.2-2.6,0.6-5.6-2.7-6.1c-2.2-0.3-6.6-0.4-9.3-0.5
			c-1.5,0-3,0.5-4.1,1.6l-4.9,4.6l-3.3-1.8c-0.2-0.1-0.4-0.1-0.6,0l0,0c-0.2,0.2-0.3,0.5-0.2,0.7c0.5,1.2,1.9,4.4,0.8,6.8
			c0,0.1-0.2,0.2-0.3,0.2l0,0c-0.2,0-0.3-0.1-0.3-0.3c0-0.9-0.1-3.7-1.1-5.1c-1.3-1.7-3.8-1-4.6,0.7s-2.7,7.2-2.7,7.2
			s-0.6,8.2-0.8,9.8c-0.1,1.7,2.7,2.2,3,0.2c0,0,0.7-0.1,1.4,1.4s1.3,2.7,2.6,3c0,0-1,5.1-1.1,6s1.1,1.1,1.3,0.1
			c0.2-0.9,1.5-6.4,1.7-7.6c0.3-1.2,1.7-0.8,1.4,0.3c-0.3,1.2-1.6,7.6-1.6,7.6l-13.7,26.5c-0.3,0.6-0.5,1.3-0.5,1.9v4
			c0,0.4,0.3,0.7,0.7,0.7l0,0c0.4,0,0.7-0.3,0.7-0.7c0-1.2,0.3-3.9,2.6-5.9c3-2.7,5.6-3.7,7.8-11c2.4-7.7,7.9-10.1,13.7-12.5
			c5.1-2.2,5.8-7.9,5-11c-0.8-3.3-4.9-7.1-12.8-9.3l-0.3-8.4l3.3,6.6c0.4,0.8,1.2,1.2,2,1.2h6.7V104.3z M165.4,103
			c-0.1,0.2-0.5,0-0.4-0.2s0.1-0.4,0.1-0.4l-1.7-0.9c0,0,0,2.1,0.1,2.3c0,0.2-0.3,0.2-0.3,0.2s-1.3-0.3-1-2.1
			c0.2-1.8,2.8-1.6,3.2-1.3c0.1,0.1,0,0.3-0.1,0.3s-0.6-0.1-1.1,0.2C164.2,101.1,165.9,102.2,165.4,103z M176.5,93.7
			c-1.3,0.9-1.6,1.8-1.6,1.8c1.5-0.9,3.7-1,6.8-0.4c1.6,0.3,2.7-0.1,3.4-0.6c0.3-0.2,0.7,0.1,0.5,0.4c-1.4,2.8-4.2,4.8-5.9,5.3
			c-1.9,0.6-2.3-1.9-2.3-1.9c0,1-0.4,1.9-0.7,2.4c-0.1,0.2-0.4,0.2-0.5-0.1c-0.4-1.3-1-1.8-1-1.8v0.1c-0.3,1.6-2.4,1.9-3.1,0.4
			l-1.3-2.7c2-2.7,4.4-3.3,5.6-3.4C176.5,93.3,176.6,93.6,176.5,93.7z"/>
		<path d="M156.5,128.2c-0.7,0.4-2.3,1.3-2.6,0.4c-0.3-0.6,1.5-3.5,2.6-5.1c0.5-0.7,0.7-1.6,0.5-2.5l-0.3-1.4
			c-0.4-1.8-1.9-3.2-3.8-3.4l-4.7-0.5l-4.1-1.3c-1.4-0.5-2.9-0.2-4,0.6l-0.8,0.6c-1,0.8-1.5,2.1-1.2,3.3c0.2,0.8,0.4,1.8,0.6,2.8
			c0.3,0.2,0.6,0.3,1,0.3c2,0.2,2.3-1.3,2.4-2.2c0-0.2,0.1-0.3,0.3-0.3c0.1,0,0.3,0.1,0.3,0.2c0.1,0.5,0.3,1.8-0.7,3.2
			c-0.8,1.1-1.9,1.3-2.8,1.1c0.2,1.1,0.4,2,0.5,2.5c0.3,1.8-1.3,1.8-1.8,1.4s-0.8-0.6-1.1-1s-0.9,0.2-0.5,0.5c0,0,9,9.5,20.9,1.4
			C158,128.6,157.2,127.7,156.5,128.2z M150.8,123.5c-0.3-0.9-0.3-1.8-0.2-2.3c0-0.2,0.3-0.4,0.5-0.3c0.2,0,0.3,0.2,0.3,0.4
			c0,0.6,0.3,2.1,2.5,2.8c0.2,0.1,0.3,0.3,0.3,0.5l-0.2,0.5c-0.1,0.2-0.3,0.3-0.5,0.3C152.8,125.3,151.2,124.9,150.8,123.5z"/>
		<path d="M136.9,84.7l2.1-3c0.3-0.4,0.1-0.9-0.3-1c-1.7-0.8-5.7-2.5-6.8-3c-1.4-0.7-2.6-0.6-3,0.2c-0.4,0.8-0.2,2.4,1.8,3.7
			c1.2,0.8,4,2.6,5.2,3.3C136.3,85.1,136.7,85,136.9,84.7z"/>
	</g>
	<polygon points="193.4,234 197.7,242.6 207.2,244 200.3,250.7 201.9,260.1 193.4,255.7 184.9,260.1 186.5,250.7 179.7,244 
		189.2,242.6 	"/>
</g>
</svg>
