<?xml version="1.0" encoding="utf-8"?>
<!-- Generator: Adobe Illustrator 25.4.0, SVG Export Plug-In . SVG Version: 6.00 Build 0)  -->
<svg version="1.1" id="Layer_1" xmlns="http://www.w3.org/2000/svg" xmlns:xlink="http://www.w3.org/1999/xlink" x="0px" y="0px"
	 viewBox="0 0 300 300" style="enable-background:new 0 0 300 300;" xml:space="preserve">
<style type="text/css">
	.st0{fill:#DDDDDD;}
</style>
<path class="st0" d="M289.8,45c0,5.9-2,11.3-6.4,15.7c-22.6,22.6-45.1,45.2-67.7,67.7c-40.5,40.5-81,81-121.5,121.4
	c-1.2,1.2-2.6,2.3-4.1,3C67,263.5,43.8,274.2,20.6,285c-0.3,0.1-0.6,0.3-0.9,0.4c-2.8,1.5-5.6,2.2-8.1-0.5c-2.4-2.5-1.4-5.2-0.1-7.9
	c2.3-4.9,4.5-9.9,6.8-14.8c8.5-18.4,16.9-36.8,25.4-55.1c0.5-1.1,1.1-2.3,2-3.1c26.6-26.6,53.1-53.1,79.7-79.7
	c22.1-22.1,44.2-44.2,66.2-66.3c13.7-13.7,27.3-27.4,41.1-41c11.8-11.6,28.9-10.9,40.4,1.4c3.1,3.3,6.3,6.5,9.5,9.7
	C287.3,32.7,289.8,38.2,289.8,45z M214.6,91.2c-45.8,45.8-91.4,91.4-136.6,136.5c3.5,3.6,7.4,7.6,10.8,11.1
	c45.5-45.5,91.1-91.1,136.7-136.7C221.9,98.5,218.1,94.6,214.6,91.2z M68.6,219.1c45.9-45.6,91.6-91.1,136.8-136
	c-3.7-4-7.4-8.1-10.5-11.5c-45.8,45.6-91.5,91.2-137,136.6C61.4,211.9,65.2,215.7,68.6,219.1z M255.4,73c7.1-7,14.4-13.9,21.2-21.2
	c3.8-4.1,3.3-10.8-0.6-14.9c-4.3-4.5-8.7-9-13.2-13.2c-6.3-5.8-15.6-5.6-21.8,0.2c-2.2,2.1-4.3,4.3-6.5,6.5
	c-3.7,3.6-7.4,7.2-10.9,10.7C234.5,52,244.9,62.4,255.4,73z M202.4,62.9c10.5,10.4,21.1,20.8,31.4,31c4.3-4.3,8.7-8.8,12.9-12.9
	c-10.2-10.3-20.7-20.8-30.9-31.1C211.4,54.2,206.9,58.6,202.4,62.9z M50.9,217.7c-3.3,7.1-6.5,13.9-9.5,20.8
	c-0.3,0.7,0.2,2.5,0.9,2.9c5.4,3.4,9.5,8.1,13.2,13.2c1.2,1.6,2.3,1.4,3.7,0.7c3-1.5,6.1-2.9,9.2-4.3c3.6-1.7,7.3-3.4,10.8-5
	C69.7,236.5,60.4,227.3,50.9,217.7z M47.2,260.8c-3.9-3.7-7.4-7-11.3-10.7c-3.2,6.9-6,13.1-9.3,20.2C33.9,267,40.2,264.1,47.2,260.8
	z"/>
</svg>
