<?xml version="1.0" encoding="utf-8"?>
<!-- Generator: Adobe Illustrator 25.4.0, SVG Export Plug-In . SVG Version: 6.00 Build 0)  -->
<svg version="1.1" id="Layer_1" xmlns="http://www.w3.org/2000/svg" xmlns:xlink="http://www.w3.org/1999/xlink" x="0px" y="0px"
	 viewBox="0 0 300 300" style="enable-background:new 0 0 300 300;" xml:space="preserve">
<style type="text/css">
	.st0{fill:#DDDDDD;stroke:#4D4D4D;stroke-width:6;stroke-miterlimit:10;}
</style>
<circle class="st0" cx="150" cy="150" r="148.1"/>
<text transform="matrix(0.8357 -0.5491 0.5491 0.8357 347.9583 16.5648)" style="font-family:'ArialMT'; font-size:11.997px;"> </text>
<g>
	<path d="M52.8,167.5H250c0.5-0.2,1.1-0.4,1.5-0.7c1.1-0.7,2.1-1.7,2.9-3.2s1.4-3.3,1.9-5.5s0.7-4.8,0.7-7.9c0-2.9-0.2-5.4-0.7-7.5
		c-0.4-2.2-1-4-1.9-5.5s-1.8-2.5-2.9-3.2c-0.4-0.3-0.8-0.4-1.2-0.6H49.1c-0.3,0.1-0.5,0.2-0.8,0.4c-1.1,0.7-2,1.7-2.8,3.2
		s-1.4,3.3-1.9,5.5s-0.7,4.8-0.7,7.7c0,3.1,0.2,5.7,0.7,7.9c0.4,2.2,1.1,4,1.9,5.5s1.7,2.6,2.8,3.2c1.1,0.7,2.3,1,3.8,1h0.7V167.5z"
		/>
</g>
<text transform="matrix(0.8263 0.5632 -0.5632 0.8263 481.0755 -25.3402)" style="font-family:'ArialMT'; font-size:12px;"> </text>
<text transform="matrix(0.8149 0.5796 -0.5796 0.8149 483.8304 -23.4623)" style="font-family:'ArialMT'; font-size:12px;"> </text>
</svg>
